<?xml version="1.0" encoding="UTF-8"?>
<svg id="Layer_1" xmlns="http://www.w3.org/2000/svg" viewBox="0 0 723.42 348.54">
  <defs>
    <style>
      .cls-1 {
        fill: #e11d48;
      }
    </style>
  </defs>
  <g>
    <g>
      <path class="cls-1" d="M362.01,40.43c-10.86,1.85-21.47.26-32.13-1.41-11.13-1.74-22.29-3.77-33.51-4.36-13.94-.73-26.7,3.24-36.55,13.9-10.67,11.56-12.65,25.35-9.84,40.21,2.97,15.7,11.54,28.63,20.81,41.17,1.9,2.57,3.87,5.08,6.32,8.27-3.17.76-5.81,1.5-8.49,1.96-.67.11-1.73-.48-2.22-1.07-11.12-13.35-21.73-27.08-26.93-44-4.93-16.06-5.16-32.15,3.88-46.85,11.43-18.59,29.15-25.48,50.32-23.84,6.84.53,13.64,2.31,20.3,4.11,15.92,4.31,31.2,11.14,48.04,11.9Z"/>
      <path class="cls-1" d="M326.36,58.76c2.72-.6,5.44-1.22,8.16-1.79,16.21-3.38,29.6-11.1,39.26-24.89,3.45-4.92,7.07-9.83,11.25-14.13,15.28-15.7,33.84-21.36,55.14-15.97,16.03,4.05,27.01,18.8,28.81,37.11.1,1.02.16,2.05.23,3.07.79,11.41-.47,13.42-11.74,18.15.07-1.39.27-2.59.18-3.78-.57-6.98-.24-14.21-2.02-20.88-4.41-16.52-17.4-24.92-34.57-23.27-14.33,1.38-26.68,6.99-36.46,17.76-4.65,5.12-9.21,10.34-13.96,15.38-10.1,10.73-22.85,14.65-37.25,14.16-1.92-.07-3.85-.11-5.77-.18-.38-.01-.75-.13-1.12-.19-.05-.18-.09-.37-.14-.55Z"/>
      <path class="cls-1" d="M467.83,63.58c-1.92,6.39-3.1,12.49-5.53,18.04-7.9,18.09-16.21,36-24.46,53.93-5.43,11.81-10.51,23.75-12.18,36.74-.88,6.82-.78,13.76-1.49,20.82-.75-3.93-1.76-7.84-2.2-11.8-2.11-19.11,3.21-36.89,10.38-54.21,5.69-13.74,11.8-27.31,17.67-40.98,1.06-2.47,1.85-5.06,2.72-7.6,2.3-6.7,7.11-11.64,15.09-14.93Z"/>
      <path class="cls-1" d="M317.25,215.93c-6.49-28.03-25.64-48-44.16-69.21,3.05-.66,5.46-1.32,7.91-1.62.82-.1,2.05.46,2.58,1.13,11.63,14.7,23.63,29.23,29.83,47.27,2.43,7.07,3.68,14.55,5.47,21.84-.54.19-1.09.39-1.63.58Z"/>
    </g>
    <g>
      <path class="cls-1" d="M471.75,17.6c6.51-1.46,12.09-1.41,17.59.14,6.69,1.89,9.3,6.42,7.73,13.21-1.01,4.34-3.3,8.03-5.98,11.52-6.03,7.84-14.01,13.49-21.77,19.38-7.77,5.9-15.85,11.35-24.13,16.5-2.22,1.38-2.49,2.28-1.07,4.65,2.75,4.58.93,8.95-1.93,12.86-4.08,5.57-9.61,9.57-15.22,13.43-2.51,1.73-5.1,3.35-7.66,5.02.73,1.33,1.92,1.04,2.83,1.38,4.05,1.53,5.78,5,4.47,9.3-1.34,4.38-4.62,7.31-7.95,10.16-6.14,5.25-13.1,9.34-19.82,14.04,2.61.19,5.16-.56,7.72-.24,4.24.53,6.05,3.11,4.96,7.26-.97,3.68-3.63,6.12-6.45,8.39-4.8,3.87-10.34,6.6-15.5,10.03.65,1.06,1.45.31,2.07.3,2.39-.05,4.75-.06,6.02,2.42,1.27,2.48.46,4.73-1.13,6.79-2.24,2.88-5.13,5.02-8.23,6.85-11.35,6.66-23.26,11.92-36.32,14.25-2.43.43-4.87.49-7.24-.28-4.41-1.44-5.49-5.46-2.17-8.59,2.8-2.64,6.2-4.31,10.2-4.83-1.37,1.26-2.78,2.49-4.1,3.8-.88.87-2.6,1.73-1.99,2.95.75,1.51,2.54.47,3.79.21,5.93-1.19,11.67-3.08,17.17-5.56,7.7-3.47,15.65-6.49,22.71-11.26.75-.5,2.19-.85,1.71-2.15-.34-.93-1.56-.75-2.41-.79-4.37-.21-8.56.04-12.74,1.95-11.44,5.23-23.16,9.75-35.73,11.59-2.42.35-4.84.57-7.27.11-3.02-.57-5.84-1.54-6.7-4.92-.79-3.14.96-5.38,3.12-7.38,3.04-2.81,6.71-4.64,10.18-7.06-3.52.52-7.03,1.06-10.55,1.56-3.46.5-6.9.45-10.34-.24-8.22-1.66-10.85-8.58-5.75-15.26,1.15-1.51,2.53-2.83,4.19-4.66-3.74.19-6.97.46-10.21.51-3.77.06-7.44-.51-10.66-2.66-2.56-1.71-4.09-4.35-3.56-7.22.72-3.93-1.3-2.88-3.32-2.44-10.65,2.31-21.32,4.6-32.19,5.65-7.17.69-14.36,1.01-21.36-1.18-1.94-.61-3.88-1.42-5.59-2.5-5.38-3.38-6.62-7.76-3.92-13.52,1.46-3.11,3.35-5.95,6.49-7.85-1.28,2.28-2.71,4.49-3.81,6.85-2.64,5.67-1.17,9.63,4.53,12.2,4.48,2.02,9.26,1.81,14.01,1.44,10.29-.8,20.15-3.77,30.11-6.18,7.72-1.87,15.33-4.21,23.03-6.17,4.36-1.11,7.64-4.13,11.56-6.01,3.2-1.54,6.37-3.15,9.96-4.13-1.59,1.28-3.19,2.56-4.78,3.83,32.96-10.56,64.51-24.29,95.28-40.14-2.81.4-5.61.81-8.42,1.21l-.2-.71c2.48-.88,4.9-2.03,7.45-2.61,10.2-2.32,19.65-6.24,28.62-11.71,12.92-7.88,25.95-15.59,38.14-24.58,4.89-3.6,9.18-7.83,12.26-13.14,4.1-7.08,2.04-12.12-5.87-14.24-4.23-1.13-8.57-1.59-13.88-1.54ZM303.57,147.65c8.88-.35,17.14-2.3,25.25-4.63,33.82-9.67,65.77-23.66,95.64-42.28,4.87-3.03,9.95-5.95,13.23-10.93,1-1.51,2.01-3.26.59-4.94-1.67-1.99-3.25-.3-4.73.55-33.82,19.33-69.34,34.82-106.29,47.09-7.91,2.63-15.88,5.01-23.96,7.05-3.03.76-3.5,3.2-3.43,5.69.07,2.6,2.36,2.18,3.69,2.39ZM323.79,166.43c5.31-.23,10.09-1.69,14.84-3.24,26.13-8.56,51.63-18.53,74.79-33.69,2.27-1.48,4.37-3.15,6.09-5.24,1.16-1.41,1.52-2.8-.85-3.38-4.01-.99-7.77-1.6-11.82.72-22.6,12.9-46.44,22.86-71.76,29.03-7.45,1.82-11.56,7.08-15.43,12.88-1.03,1.55-.27,2.37,1.34,2.62,1.01.16,2.03.23,2.8.31ZM401.79,152.55c-7.23.03-13.13,1.57-18.9,4.48-9.61,4.85-19.64,8.87-29.96,11.92-6.68,1.97-11.83,5.97-16.67,10.57-1.69,1.6-4.63,3.67-3.59,5.77.85,1.73,4.21.26,6.39-.1,15.59-2.57,29.92-8.83,44.17-15.28,7.12-3.22,14.31-6.38,20.16-11.74,1.36-1.24,3.77-2.7,3.09-4.49-.84-2.21-3.61-.98-4.7-1.13Z"/>
      <path class="cls-1" d="M378.12,199.62c1.68-.83,3.57-1.66,4.9.05,1.35,1.74.59,3.87-.88,5.2-6.62,5.96-14.37,9.09-23.39,8.56-1.58-.09-3.21-.74-3.43-2.51-.22-1.84,1.38-2.59,2.84-3.14.93-.35,2.6-1.43,1.39,1.17-.6,1.29.68,1.02,1.33.87,6.39-1.54,12.32-4.16,17.9-7.6,2.4-1.48-.75-1.61-.66-2.59Z"/>
    </g>
  </g>
  <g>
    <path class="cls-1" d="M20.32,282.36c4.3,0,8.07-2.6,7.29-4.95h.78c1.04,2.73-3.39,5.73-8.46,5.73-12.89,0-19.93-9.64-19.93-19.54,0-10.68,7.68-20.71,23.44-20.71h20.58c16.8,0,30.73,14.07,30.73,32.69,0,19.79-12.76,35.68-30.73,35.68h-15.37v-.78h1.82c.78,0,1.69-.78,1.69-1.69v-63.42c0-.78-.65-1.56-1.43-1.69h-7.29c-12.5,0-19.01,9.25-19.14,19.54,0,8.99,4.95,19.14,16.02,19.14ZM38.03,310.49h5.99c15.11,0,26.18-15.89,26.18-35.16,0-17.97-12.11-31.65-26.18-31.65h-5.99c-.91,0-1.69.78-1.69,1.69v63.42c0,.91.78,1.69,1.69,1.69Z"/>
    <path class="cls-1" d="M83.48,310.49h1.04v.78h-9.12v-.78h1.04c.65,0,1.43-.65,1.43-1.43v-54.96c0-.78-.65-1.43-1.43-1.43h-1.04v-.78h15.11c12.11,0,17.84,5.86,17.84,13.28,0,7.94-5.6,13.93-16.15,14.59v.39c10.81,5.73,12.5,29.95,19.01,30.34h1.04v.78h-1.04c-6.12-.39-10.42-8.07-13.41-16.41-2.73-7.29-3.91-15.24-10.55-15.11h-2.08v-.78h5.34c7.94,0,13.15-6.12,13.15-13.8,0-7.03-5.34-12.5-13.15-12.5h-7.03c-.78,0-1.43.65-1.43,1.43v54.96c0,.78.65,1.43,1.43,1.43Z"/>
    <path class="cls-1" d="M140.13,254.1v54.96c0,.78.65,1.43,1.43,1.43h1.04v.78h-9.12v-.78h1.04c.91,0,1.43-.65,1.43-1.43v-13.94c0-.91-.65-1.56-1.56-1.56h-19.01c-.78,0-1.43.52-1.56,1.3l-2.21,10.94c-.65,3.13,1.43,4.69,3.91,4.69v.78h-9.77v-.78c2.87,0,4.04-1.56,4.69-4.04,4.95-19.67,7.03-54.57,25.79-54.57h6.38v.78h-1.04c-.78,0-1.43.65-1.43,1.43ZM134.4,292.78c.91,0,1.56-.78,1.56-1.69v-37.51c0-.52.39-.91-.13-.91-4.56,0-8.6,2.87-11.46,7.29-4.69,7.16-7.42,18.75-9.77,30.87-.26.91.39,1.95,1.43,1.95h18.36Z"/>
    <path class="cls-1" d="M151.98,305.41c1.82,0,3.26,1.43,3.26,3.26s-1.43,3.26-3.26,3.26-3.26-1.43-3.26-3.26,1.43-3.26,3.26-3.26Z"/>
    <path class="cls-1" d="M212.92,241.6c20.19,0,36.6,15.89,36.6,35.68s-16.41,35.42-36.6,35.42-36.6-15.76-36.6-35.42,15.89-35.68,36.6-35.68ZM212.92,311.93c17.32,0,31.78-15.5,31.78-34.64s-14.46-34.9-31.78-34.9-31.78,15.63-31.78,34.9,14.33,34.64,31.78,34.64Z"/>
    <path class="cls-1" d="M256.81,276.5v31.52c0,1.3,1.17,2.47,2.47,2.47h2.34v.78h-11.46v-.78h1.04c.65,0,1.43-.65,1.43-1.43v-54.96c0-.78-.65-1.43-1.43-1.43h-1.04v-.78h22.79c1.04,0,4.69.26,3.65-2.21h.65l4.56,10.16h-.65s-3.52-7.16-8.73-7.16h-14.2c-.78,0-1.43.65-1.43,1.43v18.75c0,.78.65,1.43,1.43,1.43h11.98c1.56,0,4.82-1.69,4.82-4.95h.65v10.81h-.65c0-3.39-3.26-5.08-4.82-5.08h-11.98c-.78,0-1.43.65-1.43,1.43Z"/>
    <path class="cls-1" d="M304.08,254.1v54.96c0,.78.65,1.43,1.43,1.43h1.04v.78h-9.12v-.78h1.04c.91,0,1.43-.65,1.43-1.43v-13.94c0-.91-.65-1.56-1.56-1.56h-19.01c-.78,0-1.43.52-1.56,1.3l-2.21,10.94c-.65,3.13,1.43,4.69,3.91,4.69v.78h-9.77v-.78c2.87,0,4.04-1.56,4.69-4.04,4.95-19.67,7.03-54.57,25.79-54.57h6.38v.78h-1.04c-.78,0-1.43.65-1.43,1.43ZM298.35,292.78c.91,0,1.56-.78,1.56-1.69v-37.51c0-.52.39-.91-.13-.91-4.56,0-8.6,2.87-11.46,7.29-4.69,7.16-7.42,18.75-9.77,30.87-.26.91.39,1.95,1.43,1.95h18.36Z"/>
    <path class="cls-1" d="M316.58,310.49h1.04v.78h-9.12v-.78h1.04c.65,0,1.43-.65,1.43-1.43v-54.96c0-.78-.65-1.43-1.43-1.43h-1.04v-.78h15.11c12.11,0,17.84,5.86,17.84,13.28,0,7.94-5.6,13.93-16.15,14.59v.39c10.81,5.73,12.5,29.95,19.01,30.34h1.04v.78h-1.04c-6.12-.39-10.42-8.07-13.41-16.41-2.73-7.29-3.91-15.24-10.55-15.11h-2.08v-.78h5.34c7.94,0,13.15-6.12,13.15-13.8,0-7.03-5.34-12.5-13.15-12.5h-7.03c-.78,0-1.43.65-1.43,1.43v54.96c0,.78.65,1.43,1.43,1.43Z"/>
    <path class="cls-1" d="M373.23,254.1v54.96c0,.78.65,1.43,1.43,1.43h1.04v.78h-9.12v-.78h1.04c.91,0,1.43-.65,1.43-1.43v-13.94c0-.91-.65-1.56-1.56-1.56h-19.01c-.78,0-1.43.52-1.56,1.3l-2.21,10.94c-.65,3.13,1.43,4.69,3.91,4.69v.78h-9.77v-.78c2.87,0,4.04-1.56,4.69-4.04,4.95-19.67,7.03-54.57,25.79-54.57h6.38v.78h-1.04c-.78,0-1.43.65-1.43,1.43ZM367.5,292.78c.91,0,1.56-.78,1.56-1.69v-37.51c0-.52.39-.91-.13-.91-4.56,0-8.6,2.87-11.46,7.29-4.69,7.16-7.42,18.75-9.77,30.87-.26.91.39,1.95,1.43,1.95h18.36Z"/>
    <path class="cls-1" d="M431.7,311.27h-11.46v-.78h1.69c.65,0,1.43-.65,1.43-1.43v-63.95c0-.78-.65-1.43-1.43-1.43h-7.29c-12.89,0-19.67,9.25-19.79,19.54,0,8.99,5.21,19.14,16.67,19.14,4.3,0,6.51-2.08,7.03-3l.78.26c-.52,1.43-3.12,3.52-8.2,3.52-13.28,0-20.58-9.64-20.58-19.54,0-10.68,7.94-20.71,24.09-20.71h22.79c14.46,0,20.97,9.25,20.97,18.75,0,10.03-6.64,20.06-19.54,20.06-4.82,0-8.86-3.39-7.55-5.47l.78-.39c-.52,2.47,2.61,4.95,6.77,4.95,9.9,0,15.11-9.51,15.11-19.01s-5.21-18.1-16.54-18.1h-8.46c-.78,0-1.43.65-1.43,1.43v63.95c0,.78.65,1.43,1.43,1.43h2.73v.78Z"/>
    <path class="cls-1" d="M482.23,254.1v54.96c0,.78.65,1.43,1.43,1.43h1.04v.78h-9.12v-.78h1.04c.91,0,1.43-.65,1.43-1.43v-13.94c0-.91-.65-1.56-1.56-1.56h-19.01c-.78,0-1.43.52-1.56,1.3l-2.21,10.94c-.65,3.13,1.43,4.69,3.91,4.69v.78h-9.77v-.78c2.86,0,4.04-1.56,4.69-4.04,4.95-19.67,7.03-54.57,25.79-54.57h6.38v.78h-1.04c-.78,0-1.43.65-1.43,1.43ZM476.5,292.78c.91,0,1.56-.78,1.56-1.69v-37.51c0-.52.39-.91-.13-.91-4.56,0-8.6,2.87-11.46,7.29-4.69,7.16-7.42,18.75-9.77,30.87-.26.91.39,1.95,1.43,1.95h18.36Z"/>
    <path class="cls-1" d="M489.39,281.84c0,16.67,12.37,29.82,27.48,29.82,8.86,0,16.15-4.43,19.01-7.94v1.43c-4.04,4.3-12.11,7.55-19.67,7.55-17.97,0-31.52-13.67-31.52-30.87s14.2-31,32.17-31c5.86,0,10.42,1.95,11.85,1.95,1.82,0,1.82-.52,1.43-2.21h.78l4.3,10.81h-.78c-2.47-4.43-8.33-9.77-17.71-9.77-15.11,0-27.35,13.67-27.35,30.21Z"/>
    <path class="cls-1" d="M545.39,310.49h1.04v.78h-9.12v-.78h1.04c.65,0,1.43-.65,1.43-1.43v-54.96c0-.78-.65-1.43-1.43-1.43h-1.04v-.78h9.12v.78h-1.04c-.78,0-1.43.65-1.43,1.43v26.44c.13.65.65,1.17,1.43,1.17h26.31c.91,0,1.43-.52,1.43-1.43v-26.18c0-.78-.78-1.43-1.43-1.43h-1.04v-.78h9.12v.78h-1.04c-.78,0-1.43.65-1.43,1.43v54.96c0,.78.65,1.43,1.43,1.43h1.04v.78h-9.12v-.78h1.04c.65,0,1.43-.65,1.43-1.43v-25.13c0-.91-.52-1.43-1.43-1.43h-26.31c-.78,0-1.43.65-1.43,1.43v25.13c0,.78.65,1.43,1.43,1.43Z"/>
    <path class="cls-1" d="M588.24,254.1v16.8c0,.78.65,1.43,1.43,1.43h11.07c1.56,0,4.82-1.69,4.82-4.95h.65v10.81h-.65c0-3.39-3.26-5.08-4.82-5.08h-11.07c-.78,0-1.43.65-1.43,1.43v34.51c0,.78.65,1.43,1.43,1.43h14.59c5.21,0,8.86-7.42,8.86-7.42h.65l-4.69,10.42h-.65c.52-1.95-1.82-2.21-3.65-2.21h-23.18v-.78h1.04c.65,0,1.43-.65,1.43-1.43v-54.96c0-.78-.78-1.43-1.43-1.43h-1.04v-.78h22.01c1.04,0,4.69.26,3.65-2.21h.65l4.56,10.16h-.65s-3.52-7.16-8.73-7.16h-13.41c-.78,0-1.43.65-1.43,1.43Z"/>
    <path class="cls-1" d="M615.84,281.84c0,16.67,12.37,29.82,27.48,29.82,8.86,0,16.15-4.43,19.01-7.94v1.43c-4.04,4.3-12.11,7.55-19.67,7.55-17.97,0-31.52-13.67-31.52-30.87s14.2-31,32.17-31c5.86,0,10.42,1.95,11.85,1.95,1.82,0,1.82-.52,1.43-2.21h.78l4.3,10.81h-.78c-2.47-4.43-8.33-9.77-17.71-9.77-15.11,0-27.35,13.67-27.35,30.21Z"/>
    <path class="cls-1" d="M691.12,250.85c17.97,0,32.3,13.8,32.3,31s-14.33,30.87-32.3,30.87-32.17-13.67-32.17-30.87,14.2-31,32.17-31ZM691.12,311.93c15.11,0,27.61-13.41,27.61-30.08s-12.5-30.21-27.61-30.21-27.48,13.54-27.48,30.21,12.37,30.08,27.48,30.08Z"/>
  </g>
  <g>
    <path class="cls-1" d="M160.58,322.53h4.31c3.2,0,6.27,1.3,6.3,4.87.03,3.94-2.83,5.69-7.25,5.69h-1.72l-.05,9.66h-1.59v-20.21ZM164.1,332.77c3.41,0,5.66-1.88,5.64-5.37-.03-3.15-1.93-4.55-4.63-4.55h-2.94l.05,9.92h1.88Z"/>
    <path class="cls-1" d="M178.65,335.84c0-4.47,3.36-7.51,7.46-7.51,3.6,0,5.69,2.2,4.82,4.87h-10.85v-.32h7.2c1.22,0,2.41-.21,2.41-1.51,0-1.59-1.3-2.73-3.62-2.73-3.39,0-5.71,2.28-5.71,6.69s1.98,7.22,5.77,7.22c2.35,0,4.52-1.46,5.13-4.29l.29.05c-.64,2.94-2.88,4.68-6.06,4.68-3.68,0-6.83-2.7-6.83-7.17Z"/>
    <path class="cls-1" d="M199.53,328.83l1.53-.45v14.37h-1.53v-13.92ZM200.69,334.12c.26-3.7,2.57-5.79,5.13-5.79.56,0,1.27.11,1.72.24l-.11.32c-.42-.13-1.11-.24-1.67-.24-2.46,0-4.66,2.28-4.74,5.61l-.34-.13Z"/>
    <path class="cls-1" d="M215.24,325.18c0-.64.5-1.14,1.14-1.14s1.14.5,1.14,1.14-.5,1.14-1.14,1.14-1.14-.5-1.14-1.14ZM215.61,328.96l1.53-.45v14.23h-1.53v-13.79Z"/>
    <path class="cls-1" d="M225.85,335.63c0-4.13,3.12-7.3,7.25-7.3s7.25,3.17,7.25,7.3-3.1,7.3-7.25,7.3-7.25-3.15-7.25-7.3ZM238.76,335.63c0-3.81-1.93-6.99-5.66-6.99s-5.66,3.17-5.66,6.99,1.93,6.99,5.66,6.99,5.66-3.18,5.66-6.99Z"/>
    <path class="cls-1" d="M247.49,335.89c0-4.63,3.31-7.57,6.67-7.57,2.43,0,5.45,1.53,5.45,6.17h-.34c0-4.5-2.88-5.85-5.11-5.85-2.73,0-5.08,2.59-5.08,7.09,0,3.36,1.75,6.83,5.53,6.75,2.25-.05,4.66-1.64,4.66-5.53l.32-.03c0,4.39-2.88,6.01-5.58,6.01-3.6,0-6.51-2.94-6.51-7.04ZM259.27,322.53l1.53-.45v20.66h-1.53v-20.21Z"/>
    <path class="cls-1" d="M269.03,335.63c0-4.13,3.12-7.3,7.25-7.3s7.25,3.17,7.25,7.3-3.1,7.3-7.25,7.3-7.25-3.15-7.25-7.3ZM281.94,335.63c0-3.81-1.93-6.99-5.66-6.99s-5.66,3.17-5.66,6.99,1.93,6.99,5.66,6.99,5.66-3.18,5.66-6.99Z"/>
    <path class="cls-1" d="M291.76,328.83l1.53-.45v14.37h-1.53v-13.92ZM302.1,334.47c0-3.57-.66-5.69-4.02-5.69-2.01,0-4.79,1.53-4.79,4.74l-.32.03c0-3.6,3.15-5.21,5.56-5.21,3.57,0,5.11,1.93,5.11,5.77v8.65h-1.53v-8.28Z"/>
    <path class="cls-1" d="M311.71,335.68c0-4.42,3.15-7.36,6.88-7.36,3.12,0,5.08,1.72,5.08,4.55,0,.85-.26,1.64-.66,2.22l-.21-.19c.34-.53.56-1.27.56-2.04,0-2.73-1.9-4.18-4.39-4.18-3.31,0-5.64,2.57-5.64,6.99,0,3.92,2.04,6.88,5.79,6.88,2.65,0,4.66-1.56,5.5-4.29l.29.05c-.87,2.83-2.88,4.6-6.17,4.6-3.94,0-7.04-2.88-7.04-7.25Z"/>
    <path class="cls-1" d="M332.95,325.18c0-.64.5-1.14,1.14-1.14s1.14.5,1.14,1.14-.5,1.14-1.14,1.14-1.14-.5-1.14-1.14ZM333.32,328.96l1.53-.45v14.23h-1.53v-13.79Z"/>
    <path class="cls-1" d="M343.69,339.97c0-2.14,2.04-4.58,9.45-4.82v.32c-6.14,0-7.81,2.12-7.81,4.1,0,1.61,1.08,2.8,2.88,2.8,2.49,0,4.92-2.3,4.92-5.61h.32c0,2.75-1.85,6.17-6.22,6.17-1.98,0-3.55-1.08-3.55-2.96ZM353.14,338.73v-5.32c0-2.43-1.03-4.58-4.13-4.63-2.57-.05-4.34,1.61-4.34,3.86,0,1.11.48,2.09,1.01,2.59l-.24.21c-.61-.56-1.09-1.56-1.09-2.8,0-2.35,1.88-4.26,5-4.29,2.99,0,5.32,1.64,5.32,5.37v4.63c0,2.67.53,4.02,1.93,4.34l-.03.24c-1.91-.26-3.44-1.56-3.44-4.21Z"/>
    <path class="cls-1" d="M373.93,335.84c0-4.47,3.36-7.51,7.46-7.51,3.6,0,5.69,2.2,4.82,4.87h-10.85v-.32h7.2c1.22,0,2.41-.21,2.41-1.51,0-1.59-1.3-2.73-3.62-2.73-3.39,0-5.72,2.28-5.72,6.69s1.98,7.22,5.77,7.22c2.35,0,4.52-1.46,5.13-4.29l.29.05c-.63,2.94-2.88,4.68-6.06,4.68-3.68,0-6.83-2.7-6.83-7.17Z"/>
    <path class="cls-1" d="M406.02,322.53h1.59v20.21h-1.59v-20.21Z"/>
    <path class="cls-1" d="M417.03,328.83l1.54-.45v14.37h-1.54v-13.92ZM426.85,334.17c0-3.31-.71-5.4-3.81-5.4-2.09,0-4.47,1.53-4.47,4.74l-.32.03c0-3.6,2.75-5.21,5.4-5.21,3.33,0,4.74,1.91,4.74,5.48v8.94h-1.53v-8.57ZM436.66,334.17c0-3.31-.71-5.4-3.81-5.4-2.09,0-4.47,1.53-4.47,4.74l-.32.03c0-3.6,2.75-5.21,5.4-5.21,3.33,0,4.74,1.91,4.74,5.48v8.94h-1.53v-8.57Z"/>
    <path class="cls-1" d="M447.35,328.83l1.54-.45v20.16h-1.54v-19.71ZM448.54,336.77h.34c0,4.5,2.88,5.85,4.89,5.85,3.41,0,5.34-3.18,5.34-6.99s-1.75-6.88-5.29-6.88c-2.14,0-4.95,1.48-4.95,5.03l-.32.03c0-3.86,3.12-5.48,5.82-5.48,3.49,0,6.32,3.17,6.32,7.3s-3.09,7.3-6.93,7.3c-2.22,0-5.24-1.54-5.24-6.17Z"/>
    <path class="cls-1" d="M468.94,322.53l1.54-.45v20.66h-1.54v-20.21Z"/>
    <path class="cls-1" d="M478.84,339.97c0-2.14,2.04-4.58,9.45-4.82v.32c-6.14,0-7.8,2.12-7.8,4.1,0,1.61,1.08,2.8,2.88,2.8,2.49,0,4.92-2.3,4.92-5.61h.32c0,2.75-1.85,6.17-6.22,6.17-1.98,0-3.54-1.08-3.54-2.96ZM488.28,338.73v-5.32c0-2.43-1.03-4.58-4.13-4.63-2.57-.05-4.34,1.61-4.34,3.86,0,1.11.48,2.09,1.01,2.59l-.24.21c-.61-.56-1.08-1.56-1.08-2.8,0-2.35,1.88-4.26,5-4.29,2.99,0,5.32,1.64,5.32,5.37v4.63c0,2.67.53,4.02,1.93,4.34l-.03.24c-1.9-.26-3.44-1.56-3.44-4.21Z"/>
    <path class="cls-1" d="M499.05,328.83l1.54-.45v14.37h-1.54v-13.92ZM509.39,334.47c0-3.57-.66-5.69-4.02-5.69-2.01,0-4.79,1.53-4.79,4.74l-.32.03c0-3.6,3.15-5.21,5.56-5.21,3.57,0,5.11,1.93,5.11,5.77v8.65h-1.53v-8.28Z"/>
    <path class="cls-1" d="M519.98,337.93v-8.78h-1.91v-.32c1.38,0,2.96-1.01,3.12-3.62h.32v3.62h4.02v.32h-4.02v8.41c0,3.47.82,4.82,2.75,5.13l-.03.24c-2.43-.26-4.26-1.69-4.26-5Z"/>
    <path class="cls-1" d="M530.9,335.84c0-4.47,3.36-7.51,7.46-7.51,3.6,0,5.69,2.2,4.82,4.87h-10.85v-.32h7.2c1.22,0,2.41-.21,2.41-1.51,0-1.59-1.3-2.73-3.62-2.73-3.39,0-5.72,2.28-5.72,6.69s1.98,7.22,5.77,7.22c2.35,0,4.52-1.46,5.13-4.29l.29.05c-.63,2.94-2.88,4.68-6.06,4.68-3.68,0-6.83-2.7-6.83-7.17Z"/>
    <path class="cls-1" d="M550.56,338.01h.32c0,2.62,1.72,4.6,4.55,4.6s4.21-1.72,4.21-3.52c0-4.58-8.52-1.88-8.52-7.09,0-1.93,1.48-3.7,4.21-3.7s3.89,1.3,3.89,3.02h-.32c0-1.53-1.06-2.7-3.57-2.7-2.3,0-3.49,1.16-3.49,2.62,0,4.1,8.47,1.75,8.47,6.85,0,2.3-1.48,4.84-4.84,4.84-3.04,0-4.89-2.06-4.89-4.92ZM559.21,331.32c0,.56-.13.93-.32,1.22l-.29-.16c.13-.21.29-.56.29-1.06h.32Z"/>
  </g>
</svg>