<?xml version="1.0" encoding="utf-8"?>
<svg xmlns="http://www.w3.org/2000/svg" viewBox="-38.0679 76.3964 723.42 106.94" width="723.42px" height="106.94px"><g id="Layer_1"><g transform="matrix(1, 0, 0, 1, -38.067928, 76.396446)"><path class="cls-1" d="M20.32,40.76c4.3,0,8.07-2.6,7.29-4.95h.78c1.04,2.73-3.39,5.73-8.46,5.73C7.03,41.54,0,31.91,0,22.01,0,11.33,7.68,1.3,23.44,1.3h20.58c16.8,0,30.73,14.07,30.73,32.69,0,19.79-12.76,35.68-30.73,35.68h-15.37v-.78h1.82c.78,0,1.69-.78,1.69-1.69V3.78c0-.78-.65-1.56-1.43-1.69h-7.29C10.94,2.08,4.43,11.33,4.3,21.62c0,8.99,4.95,19.14,16.02,19.14ZM38.03,68.89h5.99c15.11,0,26.18-15.89,26.18-35.16,0-17.97-12.11-31.65-26.18-31.65h-5.99c-.91,0-1.69.78-1.69,1.69v63.42c0,.91.78,1.69,1.69,1.69Z" style="fill: rgb(219, 39, 119);"/><path class="cls-1" d="M83.48,68.89h1.04v.78h-9.12v-.78h1.04c.65,0,1.43-.65,1.43-1.43V12.5c0-.78-.65-1.43-1.43-1.43h-1.04v-.78h15.11c12.11,0,17.84,5.86,17.84,13.28,0,7.94-5.6,13.93-16.15,14.59v.39c10.81,5.73,12.5,29.95,19.01,30.34h1.04v.78h-1.04c-6.12-.39-10.42-8.07-13.41-16.41-2.73-7.29-3.91-15.24-10.55-15.11h-2.08v-.78h5.34c7.94,0,13.15-6.12,13.15-13.8,0-7.03-5.34-12.5-13.15-12.5h-7.03c-.78,0-1.43.65-1.43,1.43v54.96c0,.78.65,1.43,1.43,1.43Z" style="fill: rgb(219, 39, 119);"/><path class="cls-1" d="M140.13,12.5v54.96c0,.78.65,1.43,1.43,1.43h1.04v.78h-9.12v-.78h1.04c.91,0,1.43-.65,1.43-1.43v-13.94c0-.91-.65-1.56-1.56-1.56h-19.01c-.78,0-1.43.52-1.56,1.3l-2.21,10.94c-.65,3.13,1.43,4.69,3.91,4.69v.78h-9.77v-.78c2.87,0,4.04-1.56,4.69-4.04,4.95-19.67,7.03-54.57,25.79-54.57h6.38v.78h-1.04c-.78,0-1.43.65-1.43,1.43ZM134.4,51.18c.91,0,1.56-.78,1.56-1.69V11.98c0-.52.39-.91-.13-.91-4.56,0-8.6,2.87-11.46,7.29-4.69,7.16-7.42,18.75-9.77,30.87-.26.91.39,1.95,1.43,1.95h18.36Z" style="fill: rgb(219, 39, 119);"/><path class="cls-1" d="M151.98,63.81c1.82,0,3.26,1.43,3.26,3.26s-1.43,3.26-3.26,3.26-3.26-1.43-3.26-3.26,1.43-3.26,3.26-3.26Z" style="fill: rgb(219, 39, 119);"/><path class="cls-1" d="M212.92,0c20.19,0,36.6,15.89,36.6,35.68s-16.41,35.42-36.6,35.42-36.6-15.76-36.6-35.42S192.22,0,212.92,0ZM212.92,70.33c17.32,0,31.78-15.5,31.78-34.64S230.24.78,212.92.78s-31.78,15.63-31.78,34.9,14.33,34.64,31.78,34.64Z" style="fill: rgb(219, 39, 119);"/><path class="cls-1" d="M256.81,34.9v31.52c0,1.3,1.17,2.47,2.47,2.47h2.34v.78h-11.46v-.78h1.04c.65,0,1.43-.65,1.43-1.43V12.5c0-.78-.65-1.43-1.43-1.43h-1.04v-.78h22.79c1.04,0,4.69.26,3.65-2.21h.65l4.56,10.16h-.65s-3.52-7.16-8.73-7.16h-14.2c-.78,0-1.43.65-1.43,1.43v18.75c0,.78.65,1.43,1.43,1.43h11.98c1.56,0,4.82-1.69,4.82-4.95h.65v10.81h-.65c0-3.39-3.26-5.08-4.82-5.08h-11.98c-.78,0-1.43.65-1.43,1.43Z" style="fill: rgb(219, 39, 119);"/><path class="cls-1" d="M304.08,12.5v54.96c0,.78.65,1.43,1.43,1.43h1.04v.78h-9.12v-.78h1.04c.91,0,1.43-.65,1.43-1.43v-13.94c0-.91-.65-1.56-1.56-1.56h-19.01c-.78,0-1.43.52-1.56,1.3l-2.21,10.94c-.65,3.13,1.43,4.69,3.91,4.69v.78h-9.77v-.78c2.87,0,4.04-1.56,4.69-4.04,4.95-19.67,7.03-54.57,25.79-54.57h6.38v.78h-1.04c-.78,0-1.43.65-1.43,1.43ZM298.35,51.18c.91,0,1.56-.78,1.56-1.69V11.98c0-.52.39-.91-.13-.91-4.56,0-8.6,2.87-11.46,7.29-4.69,7.16-7.42,18.75-9.77,30.87-.26.91.39,1.95,1.43,1.95h18.36Z" style="fill: rgb(219, 39, 119);"/><path class="cls-1" d="M316.58,68.89h1.04v.78h-9.12v-.78h1.04c.65,0,1.43-.65,1.43-1.43V12.5c0-.78-.65-1.43-1.43-1.43h-1.04v-.78h15.11c12.11,0,17.84,5.86,17.84,13.28,0,7.94-5.6,13.93-16.15,14.59v.39c10.81,5.73,12.5,29.95,19.01,30.34h1.04v.78h-1.04c-6.12-.39-10.42-8.07-13.41-16.41-2.73-7.29-3.91-15.24-10.55-15.11h-2.08v-.78h5.34c7.94,0,13.15-6.12,13.15-13.8,0-7.03-5.34-12.5-13.15-12.5h-7.03c-.78,0-1.43.65-1.43,1.43v54.96c0,.78.65,1.43,1.43,1.43Z" style="fill: rgb(219, 39, 119);"/><path class="cls-1" d="M373.23,12.5v54.96c0,.78.65,1.43,1.43,1.43h1.04v.78h-9.12v-.78h1.04c.91,0,1.43-.65,1.43-1.43v-13.94c0-.91-.65-1.56-1.56-1.56h-19.01c-.78,0-1.43.52-1.56,1.3l-2.21,10.94c-.65,3.13,1.43,4.69,3.91,4.69v.78h-9.77v-.78c2.87,0,4.04-1.56,4.69-4.04,4.95-19.67,7.03-54.57,25.79-54.57h6.38v.78h-1.04c-.78,0-1.43.65-1.43,1.43ZM367.5,51.18c.91,0,1.56-.78,1.56-1.69V11.98c0-.52.39-.91-.13-.91-4.56,0-8.6,2.87-11.46,7.29-4.69,7.16-7.42,18.75-9.77,30.87-.26.91.39,1.95,1.43,1.95h18.36Z" style="fill: rgb(219, 39, 119);"/><path class="cls-1" d="M431.7,69.67h-11.46v-.78h1.69c.65,0,1.43-.65,1.43-1.43V3.52c0-.78-.65-1.43-1.43-1.43h-7.29c-12.89,0-19.67,9.25-19.79,19.54,0,8.99,5.21,19.14,16.67,19.14,4.3,0,6.51-2.08,7.03-3l.78.26c-.52,1.43-3.12,3.52-8.2,3.52-13.28,0-20.58-9.64-20.58-19.54,0-10.68,7.94-20.71,24.09-20.71h22.79c14.46,0,20.97,9.25,20.97,18.75,0,10.03-6.64,20.06-19.54,20.06-4.82,0-8.86-3.39-7.55-5.47l.78-.39c-.52,2.47,2.61,4.95,6.77,4.95,9.9,0,15.11-9.51,15.11-19.01s-5.21-18.1-16.54-18.1h-8.46c-.78,0-1.43.65-1.43,1.43v63.95c0,.78.65,1.43,1.43,1.43h2.73v.78Z" style="fill: rgb(219, 39, 119);"/><path class="cls-1" d="M482.23,12.5v54.96c0,.78.65,1.43,1.43,1.43h1.04v.78h-9.12v-.78h1.04c.91,0,1.43-.65,1.43-1.43v-13.94c0-.91-.65-1.56-1.56-1.56h-19.01c-.78,0-1.43.52-1.56,1.3l-2.21,10.94c-.65,3.13,1.43,4.69,3.91,4.69v.78h-9.77v-.78c2.86,0,4.04-1.56,4.69-4.04,4.95-19.67,7.03-54.57,25.79-54.57h6.38v.78h-1.04c-.78,0-1.43.65-1.43,1.43ZM476.5,51.18c.91,0,1.56-.78,1.56-1.69V11.98c0-.52.39-.91-.13-.91-4.56,0-8.6,2.87-11.46,7.29-4.69,7.16-7.42,18.75-9.77,30.87-.26.91.39,1.95,1.43,1.95h18.36Z" style="fill: rgb(219, 39, 119);"/><path class="cls-1" d="M489.39,40.24c0,16.67,12.37,29.82,27.48,29.82,8.86,0,16.15-4.43,19.01-7.94v1.43c-4.04,4.3-12.11,7.55-19.67,7.55-17.97,0-31.52-13.67-31.52-30.87s14.2-31,32.17-31c5.86,0,10.42,1.95,11.85,1.95,1.82,0,1.82-.52,1.43-2.21h.78l4.3,10.81h-.78c-2.47-4.43-8.33-9.77-17.71-9.77-15.11,0-27.35,13.67-27.35,30.21Z" style="fill: rgb(219, 39, 119);"/><path class="cls-1" d="M545.39,68.89h1.04v.78h-9.12v-.78h1.04c.65,0,1.43-.65,1.43-1.43V12.5c0-.78-.65-1.43-1.43-1.43h-1.04v-.78h9.12v.78h-1.04c-.78,0-1.43.65-1.43,1.43v26.44c.13.65.65,1.17,1.43,1.17h26.31c.91,0,1.43-.52,1.43-1.43V12.5c0-.78-.78-1.43-1.43-1.43h-1.04v-.78h9.12v.78h-1.04c-.78,0-1.43.65-1.43,1.43v54.96c0,.78.65,1.43,1.43,1.43h1.04v.78h-9.12v-.78h1.04c.65,0,1.43-.65,1.43-1.43v-25.13c0-.91-.52-1.43-1.43-1.43h-26.31c-.78,0-1.43.65-1.43,1.43v25.13c0,.78.65,1.43,1.43,1.43Z" style="fill: rgb(219, 39, 119);"/><path class="cls-1" d="M588.24,12.5v16.8c0,.78.65,1.43,1.43,1.43h11.07c1.56,0,4.82-1.69,4.82-4.95h.65v10.81h-.65c0-3.39-3.26-5.08-4.82-5.08h-11.07c-.78,0-1.43.65-1.43,1.43v34.51c0,.78.65,1.43,1.43,1.43h14.59c5.21,0,8.86-7.42,8.86-7.42h.65l-4.69,10.42h-.65c.52-1.95-1.82-2.21-3.65-2.21h-23.18v-.78h1.04c.65,0,1.43-.65,1.43-1.43V12.5c0-.78-.78-1.43-1.43-1.43h-1.04v-.78h22.01c1.04,0,4.69.26,3.65-2.21h.65l4.56,10.16h-.65s-3.52-7.16-8.73-7.16h-13.41c-.78,0-1.43.65-1.43,1.43Z" style="fill: rgb(219, 39, 119);"/><path class="cls-1" d="M615.84,40.24c0,16.67,12.37,29.82,27.48,29.82,8.86,0,16.15-4.43,19.01-7.94v1.43c-4.04,4.3-12.11,7.55-19.67,7.55-17.97,0-31.52-13.67-31.52-30.87s14.2-31,32.17-31c5.86,0,10.42,1.95,11.85,1.95,1.82,0,1.82-.52,1.43-2.21h.78l4.3,10.81h-.78c-2.47-4.43-8.33-9.77-17.71-9.77-15.11,0-27.35,13.67-27.35,30.21Z" style="fill: rgb(219, 39, 119);"/><path class="cls-1" d="M691.12,9.25c17.97,0,32.3,13.8,32.3,31s-14.33,30.87-32.3,30.87-32.17-13.67-32.17-30.87,14.2-31,32.17-31ZM691.12,70.33c15.11,0,27.61-13.41,27.61-30.08s-12.5-30.21-27.61-30.21-27.48,13.54-27.48,30.21,12.37,30.08,27.48,30.08Z" style="fill: rgb(219, 39, 119);"/></g><g transform="matrix(1, 0, 0, 1, -38.067928, 76.396446)"><path class="cls-1" d="M160.58,80.93h4.31c3.2,0,6.27,1.3,6.3,4.87.03,3.94-2.83,5.69-7.25,5.69h-1.72l-.05,9.66h-1.59v-20.21ZM164.1,91.17c3.41,0,5.66-1.88,5.64-5.37-.03-3.15-1.93-4.55-4.63-4.55h-2.94l.05,9.92h1.88Z" style="fill: rgb(219, 39, 119);"/><path class="cls-1" d="M178.65,94.24c0-4.47,3.36-7.51,7.46-7.51,3.6,0,5.69,2.2,4.82,4.87h-10.85v-.32h7.2c1.22,0,2.41-.21,2.41-1.51,0-1.59-1.3-2.73-3.62-2.73-3.39,0-5.71,2.28-5.71,6.69s1.98,7.22,5.77,7.22c2.35,0,4.52-1.46,5.13-4.29l.29.05c-.64,2.94-2.88,4.68-6.06,4.68-3.68,0-6.83-2.7-6.83-7.17Z" style="fill: rgb(219, 39, 119);"/><path class="cls-1" d="M199.53,87.23l1.53-.45v14.37h-1.53v-13.92ZM200.69,92.52c.26-3.7,2.57-5.79,5.13-5.79.56,0,1.27.11,1.72.24l-.11.32c-.42-.13-1.11-.24-1.67-.24-2.46,0-4.66,2.28-4.74,5.61l-.34-.13Z" style="fill: rgb(219, 39, 119);"/><path class="cls-1" d="M215.24,83.58c0-.64.5-1.14,1.14-1.14s1.14.5,1.14,1.14-.5,1.14-1.14,1.14-1.14-.5-1.14-1.14ZM215.61,87.36l1.53-.45v14.23h-1.53v-13.79Z" style="fill: rgb(219, 39, 119);"/><path class="cls-1" d="M225.85,94.03c0-4.13,3.12-7.3,7.25-7.3s7.25,3.17,7.25,7.3-3.1,7.3-7.25,7.3-7.25-3.15-7.25-7.3ZM238.76,94.03c0-3.81-1.93-6.99-5.66-6.99s-5.66,3.17-5.66,6.99,1.93,6.99,5.66,6.99,5.66-3.18,5.66-6.99Z" style="fill: rgb(219, 39, 119);"/><path class="cls-1" d="M247.49,94.29c0-4.63,3.31-7.57,6.67-7.57,2.43,0,5.45,1.53,5.45,6.17h-.34c0-4.5-2.88-5.85-5.11-5.85-2.73,0-5.08,2.59-5.08,7.09,0,3.36,1.75,6.83,5.53,6.75,2.25-.05,4.66-1.64,4.66-5.53l.32-.03c0,4.39-2.88,6.01-5.58,6.01-3.6,0-6.51-2.94-6.51-7.04ZM259.27,80.93l1.53-.45v20.66h-1.53v-20.21Z" style="fill: rgb(219, 39, 119);"/><path class="cls-1" d="M269.03,94.03c0-4.13,3.12-7.3,7.25-7.3s7.25,3.17,7.25,7.3-3.1,7.3-7.25,7.3-7.25-3.15-7.25-7.3ZM281.94,94.03c0-3.81-1.93-6.99-5.66-6.99s-5.66,3.17-5.66,6.99,1.93,6.99,5.66,6.99,5.66-3.18,5.66-6.99Z" style="fill: rgb(219, 39, 119);"/><path class="cls-1" d="M291.76,87.23l1.53-.45v14.37h-1.53v-13.92ZM302.1,92.87c0-3.57-.66-5.69-4.02-5.69-2.01,0-4.79,1.53-4.79,4.74l-.32.03c0-3.6,3.15-5.21,5.56-5.21,3.57,0,5.11,1.93,5.11,5.77v8.65h-1.53v-8.28Z" style="fill: rgb(219, 39, 119);"/><path class="cls-1" d="M311.71,94.08c0-4.42,3.15-7.36,6.88-7.36,3.12,0,5.08,1.72,5.08,4.55,0,.85-.26,1.64-.66,2.22l-.21-.19c.34-.53.56-1.27.56-2.04,0-2.73-1.9-4.18-4.39-4.18-3.31,0-5.64,2.57-5.64,6.99,0,3.92,2.04,6.88,5.79,6.88,2.65,0,4.66-1.56,5.5-4.29l.29.05c-.87,2.83-2.88,4.6-6.17,4.6-3.94,0-7.04-2.88-7.04-7.25Z" style="fill: rgb(219, 39, 119);"/><path class="cls-1" d="M332.95,83.58c0-.64.5-1.14,1.14-1.14s1.14.5,1.14,1.14-.5,1.14-1.14,1.14-1.14-.5-1.14-1.14ZM333.32,87.36l1.53-.45v14.23h-1.53v-13.79Z" style="fill: rgb(219, 39, 119);"/><path class="cls-1" d="M343.69,98.37c0-2.14,2.04-4.58,9.45-4.82v.32c-6.14,0-7.81,2.12-7.81,4.1,0,1.61,1.08,2.8,2.88,2.8,2.49,0,4.92-2.3,4.92-5.61h.32c0,2.75-1.85,6.17-6.22,6.17-1.98,0-3.55-1.08-3.55-2.96ZM353.14,97.13v-5.32c0-2.43-1.03-4.58-4.13-4.63-2.57-.05-4.34,1.61-4.34,3.86,0,1.11.48,2.09,1.01,2.59l-.24.21c-.61-.56-1.09-1.56-1.09-2.8,0-2.35,1.88-4.26,5-4.29,2.99,0,5.32,1.64,5.32,5.37v4.63c0,2.67.53,4.02,1.93,4.34l-.03.24c-1.91-.26-3.44-1.56-3.44-4.21Z" style="fill: rgb(219, 39, 119);"/><path class="cls-1" d="M373.93,94.24c0-4.47,3.36-7.51,7.46-7.51,3.6,0,5.69,2.2,4.82,4.87h-10.85v-.32h7.2c1.22,0,2.41-.21,2.41-1.51,0-1.59-1.3-2.73-3.62-2.73-3.39,0-5.72,2.28-5.72,6.69s1.98,7.22,5.77,7.22c2.35,0,4.52-1.46,5.13-4.29l.29.05c-.63,2.94-2.88,4.68-6.06,4.68-3.68,0-6.83-2.7-6.83-7.17Z" style="fill: rgb(219, 39, 119);"/><path class="cls-1" d="M406.02,80.93h1.59v20.21h-1.59v-20.21Z" style="fill: rgb(219, 39, 119);"/><path class="cls-1" d="M417.03,87.23l1.54-.45v14.37h-1.54v-13.92ZM426.85,92.58c0-3.31-.71-5.4-3.81-5.4-2.09,0-4.47,1.53-4.47,4.74l-.32.03c0-3.6,2.75-5.21,5.4-5.21,3.33,0,4.74,1.91,4.74,5.48v8.94h-1.53v-8.57ZM436.66,92.58c0-3.31-.71-5.4-3.81-5.4-2.09,0-4.47,1.53-4.47,4.74l-.32.03c0-3.6,2.75-5.21,5.4-5.21,3.33,0,4.74,1.91,4.74,5.48v8.94h-1.53v-8.57Z" style="fill: rgb(219, 39, 119);"/><path class="cls-1" d="M447.35,87.23l1.54-.45v20.16h-1.54v-19.71ZM448.54,95.17h.34c0,4.5,2.88,5.85,4.89,5.85,3.41,0,5.34-3.18,5.34-6.99s-1.75-6.88-5.29-6.88c-2.14,0-4.95,1.48-4.95,5.03l-.32.03c0-3.86,3.12-5.48,5.82-5.48,3.49,0,6.32,3.17,6.32,7.3s-3.09,7.3-6.93,7.3c-2.22,0-5.24-1.54-5.24-6.17Z" style="fill: rgb(219, 39, 119);"/><path class="cls-1" d="M468.94,80.93l1.54-.45v20.66h-1.54v-20.21Z" style="fill: rgb(219, 39, 119);"/><path class="cls-1" d="M478.84,98.37c0-2.14,2.04-4.58,9.45-4.82v.32c-6.14,0-7.8,2.12-7.8,4.1,0,1.61,1.08,2.8,2.88,2.8,2.49,0,4.92-2.3,4.92-5.61h.32c0,2.75-1.85,6.17-6.22,6.17-1.98,0-3.54-1.08-3.54-2.96ZM488.28,97.13v-5.32c0-2.43-1.03-4.58-4.13-4.63-2.57-.05-4.34,1.61-4.34,3.86,0,1.11.48,2.09,1.01,2.59l-.24.21c-.61-.56-1.08-1.56-1.08-2.8,0-2.35,1.88-4.26,5-4.29,2.99,0,5.32,1.64,5.32,5.37v4.63c0,2.67.53,4.02,1.93,4.34l-.03.24c-1.9-.26-3.44-1.56-3.44-4.21Z" style="fill: rgb(219, 39, 119);"/><path class="cls-1" d="M499.05,87.23l1.54-.45v14.37h-1.54v-13.92ZM509.39,92.87c0-3.57-.66-5.69-4.02-5.69-2.01,0-4.79,1.53-4.79,4.74l-.32.03c0-3.6,3.15-5.21,5.56-5.21,3.57,0,5.11,1.93,5.11,5.77v8.65h-1.53v-8.28Z" style="fill: rgb(219, 39, 119);"/><path class="cls-1" d="M519.98,96.33v-8.78h-1.91v-.32c1.38,0,2.96-1.01,3.12-3.62h.32v3.62h4.02v.32h-4.02v8.41c0,3.47.82,4.82,2.75,5.13l-.03.24c-2.43-.26-4.26-1.69-4.26-5Z" style="fill: rgb(219, 39, 119);"/><path class="cls-1" d="M530.9,94.24c0-4.47,3.36-7.51,7.46-7.51,3.6,0,5.69,2.2,4.82,4.87h-10.85v-.32h7.2c1.22,0,2.41-.21,2.41-1.51,0-1.59-1.3-2.73-3.62-2.73-3.39,0-5.72,2.28-5.72,6.69s1.98,7.22,5.77,7.22c2.35,0,4.52-1.46,5.13-4.29l.29.05c-.63,2.94-2.88,4.68-6.06,4.68-3.68,0-6.83-2.7-6.83-7.17Z" style="fill: rgb(219, 39, 119);"/><path class="cls-1" d="M550.56,96.41h.32c0,2.62,1.72,4.6,4.55,4.6s4.21-1.72,4.21-3.52c0-4.58-8.52-1.88-8.52-7.09,0-1.93,1.48-3.7,4.21-3.7s3.89,1.3,3.89,3.02h-.32c0-1.53-1.06-2.7-3.57-2.7-2.3,0-3.49,1.16-3.49,2.62,0,4.1,8.47,1.75,8.47,6.85,0,2.3-1.48,4.84-4.84,4.84-3.04,0-4.89-2.06-4.89-4.92ZM559.21,89.72c0,.56-.13.93-.32,1.22l-.29-.16c.13-.21.29-.56.29-1.06h.32Z" style="fill: rgb(219, 39, 119);"/></g></g></svg>